<svg width="50" height="50" viewBox="0 0 50 50" fill="none" xmlns="http://www.w3.org/2000/svg">
<path d="M7.39519 20.6296C6.58908 20.6296 5.93555 19.976 5.93555 19.1699V16.2507C5.93555 15.4445 6.58908 14.791 7.39519 14.791C8.2013 14.791 8.85482 15.4445 8.85482 16.2507V19.1699C8.85482 19.976 8.2013 20.6296 7.39519 20.6296Z" fill="#66334D"/>
<path d="M35.1283 16.251V19.1703C35.1283 19.976 34.4744 20.6299 33.6687 20.6299H16.153C15.3473 20.6299 14.6934 19.976 14.6934 19.1703V16.251C14.6934 13.8367 16.658 11.8721 19.0723 11.8721H30.7494C33.1636 11.8721 35.1283 13.8367 35.1283 16.251Z" fill="#66334D"/>
<path d="M35.1276 16.251V19.1703C35.1276 19.976 34.4737 20.6299 33.668 20.6299H24.9102V11.8721H30.7487C33.163 11.8721 35.1276 13.8367 35.1276 16.251Z" fill="#66334D"/>
<path d="M35.1296 16.251V19.1703C35.1296 19.976 34.4757 20.6299 33.6699 20.6299H24.9121V11.8721H30.7507C33.1649 11.8721 35.1296 13.8367 35.1296 16.251Z" fill="#4D2739"/>
<path d="M49.8223 22.0889V33.766L24.9112 36.1014L0 33.766V22.0889C0 19.6746 1.96467 17.71 4.37892 17.71H45.4434C47.8577 17.71 49.8223 19.6746 49.8223 22.0889Z" fill="#8C466A"/>
<path d="M49.8233 22.0889V33.766L24.9121 36.1014V17.71H45.4444C47.8586 17.71 49.8233 19.6746 49.8233 22.0889Z" fill="#66334D"/>
<path d="M49.8223 33.7666V45.4437C49.8223 47.858 47.8577 49.8226 45.4434 49.8226H4.37892C1.96467 49.8226 0 47.858 0 45.4437V33.7666H49.8223Z" fill="#FF8FB8"/>
<path d="M49.8233 33.7666V45.4437C49.8233 47.858 47.8586 49.8226 45.4444 49.8226H24.9121V33.7666H49.8233Z" fill="#FF5F96"/>
<path d="M24.9108 23.5488C19.2766 23.5488 14.6934 28.1321 14.6934 33.7663C14.6934 39.3898 19.2679 43.9838 24.9108 43.9838C30.5567 43.9838 35.1283 39.3879 35.1283 33.7663C35.1283 28.1321 30.545 23.5488 24.9108 23.5488Z" fill="#FFF2FB"/>
<path d="M35.1296 33.7663C35.1296 39.3879 30.558 43.9838 24.9121 43.9838V23.5488C30.5463 23.5488 35.1296 28.1321 35.1296 33.7663Z" fill="#FFDFEA"/>
<path d="M24.9121 29.3877C22.4979 29.3877 20.5332 31.3524 20.5332 33.7666C20.5332 36.175 22.492 38.1455 24.9121 38.1455C27.3303 38.1455 29.291 36.177 29.291 33.7666C29.291 31.3524 27.3264 29.3877 24.9121 29.3877Z" fill="#FFDFEA"/>
<path d="M29.291 33.7666C29.291 36.177 27.3302 38.1455 24.9121 38.1455V29.3877C27.3264 29.3877 29.291 31.3524 29.291 33.7666Z" fill="#FFBFBF"/>
<path d="M7.39519 26.4681C8.20132 26.4681 8.85482 25.8146 8.85482 25.0085C8.85482 24.2023 8.20132 23.5488 7.39519 23.5488C6.58905 23.5488 5.93555 24.2023 5.93555 25.0085C5.93555 25.8146 6.58905 26.4681 7.39519 26.4681Z" fill="#97DE3D"/>
<path d="M42.4277 26.4681H39.5085C38.7024 26.4681 38.0488 25.8146 38.0488 25.0085C38.0488 24.2024 38.7024 23.5488 39.5085 23.5488H42.4277C43.2339 23.5488 43.8874 24.2024 43.8874 25.0085C43.8874 25.8146 43.2339 26.4681 42.4277 26.4681Z" fill="#59C36A"/>
<path d="M26.3704 1.45964V4.37892C26.3704 5.18464 25.7165 5.83856 24.9108 5.83856C24.1051 5.83856 23.4512 5.18464 23.4512 4.37892V1.45964C23.4512 0.653918 24.1051 0 24.9108 0C25.7165 0 26.3704 0.653918 26.3704 1.45964Z" fill="#FFE580"/>
<path d="M26.3717 1.45964V4.37892C26.3717 5.18464 25.7178 5.83855 24.9121 5.83855V0C25.7178 0 26.3717 0.653918 26.3717 1.45964Z" fill="#FFCC66"/>
<path d="M28.6853 7.90265C28.1153 7.33261 28.1153 6.40847 28.6853 5.83843L30.7496 3.77421C31.3195 3.20417 32.2438 3.20417 32.8138 3.77421C33.3838 4.34425 33.3838 5.26839 32.8138 5.83843L30.7496 7.90265C30.1796 8.47269 29.2554 8.47269 28.6853 7.90265Z" fill="#FFCC66"/>
<path d="M19.0718 7.90265L17.0075 5.83843C16.4376 5.26839 16.4376 4.34425 17.0075 3.77421C17.5775 3.20417 18.5016 3.20417 19.0718 3.77421L21.136 5.83843C21.7059 6.40847 21.7059 7.33261 21.136 7.90265C20.566 8.47259 19.6419 8.47278 19.0718 7.90265Z" fill="#FFE580"/>
</svg>
