<svg width="77" height="84" viewBox="0 0 77 84" fill="none" xmlns="http://www.w3.org/2000/svg">
<path d="M3.388 75H5.67V66.544H8.764V64.64H0.308V66.544H3.388V75ZM9.86114 75.112C10.9671 75.112 11.7791 74.678 12.4651 73.908C12.4651 74.328 12.5351 74.692 12.6331 75H14.8731C14.7191 74.622 14.6631 74.076 14.6631 73.18V70.31C14.6631 68.392 13.8231 67.384 11.7791 67.384C9.91714 67.384 8.79714 68.042 8.05514 68.714L9.00714 70.002C9.69314 69.47 10.5051 69.078 11.4571 69.078C12.1851 69.078 12.4651 69.428 12.4651 69.974V70.156C9.18914 70.422 7.73314 71.374 7.73314 73.096C7.73314 74.37 8.71314 75.112 9.86114 75.112ZM10.7571 73.418C10.2671 73.418 9.93114 73.18 9.93114 72.704C9.93114 72.018 10.6871 71.57 12.4651 71.388V72.774C12.0871 73.152 11.5411 73.418 10.7571 73.418ZM16.3032 75H18.5572V72.984L19.4672 71.962L21.1192 75H23.4432L20.8672 70.324L23.3032 67.538H20.8812L18.5572 70.324V64.64H16.3032V75ZM27.4982 75.154C28.8002 75.154 29.8782 74.776 30.7462 74.034L29.8782 72.69C29.3742 73.152 28.5482 73.586 27.6662 73.586C26.7282 73.586 26.0422 73.11 25.9302 71.878H30.8722V71.542C30.8722 68.154 28.9822 67.384 27.4422 67.384C25.9022 67.384 23.6902 68.378 23.6902 71.276C23.6902 74.16 25.5522 75.154 27.4982 75.154ZM25.9582 70.548C26.1262 69.456 26.7282 68.994 27.4282 68.994C28.2682 68.994 28.7442 69.498 28.8562 70.548H25.9582ZM36.146 75H38.414V71.318H39.884C41.956 71.318 44.14 70.744 44.14 67.958C44.14 65.228 42.124 64.64 39.912 64.64H36.146V75ZM38.414 69.554V66.502H39.968C41.396 66.502 41.914 67.048 41.914 68.014C41.914 69.008 41.382 69.554 39.968 69.554H38.414ZM45.397 75H47.651V69.988C48.155 69.554 48.673 69.246 49.289 69.246C49.905 69.246 50.157 69.596 50.157 70.268V75H52.411V69.554C52.411 68.014 51.501 67.384 50.227 67.384C48.925 67.384 48.099 68.126 47.651 68.714V64.64H45.397V75ZM57.4673 75.154C59.2733 75.154 61.2753 74.174 61.2753 71.276C61.2753 68.35 59.2733 67.384 57.4673 67.384C55.6473 67.384 53.6453 68.35 53.6453 71.276C53.6453 74.174 55.6613 75.154 57.4673 75.154ZM57.4673 73.572C56.3193 73.572 55.8993 72.536 55.8993 71.29C55.8993 69.946 56.3893 69.036 57.4673 69.036C58.5873 69.036 59.0213 70.044 59.0213 71.29C59.0213 72.648 58.5313 73.572 57.4673 73.572ZM65.7185 75.098C66.2085 75.098 67.0345 75.028 67.2025 74.986V73.376C67.0485 73.432 66.7125 73.46 66.4605 73.46C65.6485 73.46 65.4245 73.208 65.4245 72.41V69.176H67.3425V67.538H65.4245V64.976H63.1845V67.538H61.9385V69.176H63.1845V72.9C63.1845 74.3 63.5065 75.098 65.7185 75.098ZM71.9731 75.154C73.7791 75.154 75.7811 74.174 75.7811 71.276C75.7811 68.35 73.7791 67.384 71.9731 67.384C70.1531 67.384 68.1511 68.35 68.1511 71.276C68.1511 74.174 70.1671 75.154 71.9731 75.154ZM71.9731 73.572C70.8251 73.572 70.4051 72.536 70.4051 71.29C70.4051 69.946 70.8951 69.036 71.9731 69.036C73.0931 69.036 73.5271 70.044 73.5271 71.29C73.5271 72.648 73.0371 73.572 71.9731 73.572Z" fill="black"/>
<g clip-path="url(#clip0_601_37264)">
<path d="M21.3952 20.6296C20.5891 20.6296 19.9355 19.976 19.9355 19.1699V16.2507C19.9355 15.4445 20.5891 14.791 21.3952 14.791C22.2013 14.791 22.8548 15.4445 22.8548 16.2507V19.1699C22.8548 19.976 22.2013 20.6296 21.3952 20.6296Z" fill="#66334D"/>
<path d="M49.1283 16.251V19.1703C49.1283 19.976 48.4744 20.6299 47.6687 20.6299H30.153C29.3473 20.6299 28.6934 19.976 28.6934 19.1703V16.251C28.6934 13.8367 30.658 11.8721 33.0723 11.8721H44.7494C47.1636 11.8721 49.1283 13.8367 49.1283 16.251Z" fill="#66334D"/>
<path d="M49.1276 16.251V19.1703C49.1276 19.976 48.4737 20.6299 47.668 20.6299H38.9102V11.8721H44.7487C47.163 11.8721 49.1276 13.8367 49.1276 16.251Z" fill="#66334D"/>
<path d="M49.1296 16.251V19.1703C49.1296 19.976 48.4757 20.6299 47.6699 20.6299H38.9121V11.8721H44.7507C47.1649 11.8721 49.1296 13.8367 49.1296 16.251Z" fill="#4D2739"/>
<path d="M63.8223 22.0889V33.766L38.9112 36.1014L14 33.766V22.0889C14 19.6746 15.9647 17.71 18.3789 17.71H59.4434C61.8577 17.71 63.8223 19.6746 63.8223 22.0889Z" fill="#8C466A"/>
<path d="M63.8233 22.0889V33.766L38.9121 36.1014V17.71H59.4444C61.8586 17.71 63.8233 19.6746 63.8233 22.0889Z" fill="#66334D"/>
<path d="M63.8223 33.7666V45.4437C63.8223 47.858 61.8577 49.8226 59.4434 49.8226H18.3789C15.9647 49.8226 14 47.858 14 45.4437V33.7666H63.8223Z" fill="#FF8FB8"/>
<path d="M63.8233 33.7666V45.4437C63.8233 47.858 61.8586 49.8226 59.4444 49.8226H38.9121V33.7666H63.8233Z" fill="#FF5F96"/>
<path d="M38.9108 23.5488C33.2766 23.5488 28.6934 28.1321 28.6934 33.7663C28.6934 39.3898 33.2679 43.9838 38.9108 43.9838C44.5567 43.9838 49.1283 39.3879 49.1283 33.7663C49.1283 28.1321 44.545 23.5488 38.9108 23.5488Z" fill="#FFF2FB"/>
<path d="M49.1296 33.7663C49.1296 39.3879 44.558 43.9838 38.9121 43.9838V23.5488C44.5463 23.5488 49.1296 28.1321 49.1296 33.7663Z" fill="#FFDFEA"/>
<path d="M38.9121 29.3877C36.4979 29.3877 34.5332 31.3524 34.5332 33.7666C34.5332 36.175 36.492 38.1455 38.9121 38.1455C41.3303 38.1455 43.291 36.177 43.291 33.7666C43.291 31.3524 41.3264 29.3877 38.9121 29.3877Z" fill="#FFDFEA"/>
<path d="M43.291 33.7666C43.291 36.177 41.3302 38.1455 38.9121 38.1455V29.3877C41.3264 29.3877 43.291 31.3524 43.291 33.7666Z" fill="#FFBFBF"/>
<path d="M21.3952 26.4681C22.2013 26.4681 22.8548 25.8146 22.8548 25.0085C22.8548 24.2023 22.2013 23.5488 21.3952 23.5488C20.589 23.5488 19.9355 24.2023 19.9355 25.0085C19.9355 25.8146 20.589 26.4681 21.3952 26.4681Z" fill="#97DE3D"/>
<path d="M56.4277 26.4681H53.5085C52.7024 26.4681 52.0488 25.8146 52.0488 25.0085C52.0488 24.2024 52.7024 23.5488 53.5085 23.5488H56.4277C57.2339 23.5488 57.8874 24.2024 57.8874 25.0085C57.8874 25.8146 57.2339 26.4681 56.4277 26.4681Z" fill="#59C36A"/>
<path d="M40.3704 1.45964V4.37892C40.3704 5.18464 39.7165 5.83856 38.9108 5.83856C38.1051 5.83856 37.4512 5.18464 37.4512 4.37892V1.45964C37.4512 0.653918 38.1051 0 38.9108 0C39.7165 0 40.3704 0.653918 40.3704 1.45964Z" fill="#FFE580"/>
<path d="M40.3717 1.45964V4.37892C40.3717 5.18464 39.7178 5.83855 38.9121 5.83855V0C39.7178 0 40.3717 0.653918 40.3717 1.45964Z" fill="#FFCC66"/>
<path d="M42.6853 7.90265C42.1153 7.33261 42.1153 6.40847 42.6853 5.83843L44.7496 3.77421C45.3195 3.20417 46.2438 3.20417 46.8138 3.77421C47.3838 4.34425 47.3838 5.26839 46.8138 5.83843L44.7496 7.90265C44.1796 8.47269 43.2554 8.47269 42.6853 7.90265Z" fill="#FFCC66"/>
<path d="M33.0718 7.90265L31.0075 5.83843C30.4376 5.26839 30.4376 4.34425 31.0075 3.77421C31.5775 3.20417 32.5016 3.20417 33.0718 3.77421L35.136 5.83843C35.7059 6.40847 35.7059 7.33261 35.136 7.90265C34.566 8.47259 33.6419 8.47278 33.0718 7.90265Z" fill="#FFE580"/>
</g>
<defs>
<clipPath id="clip0_601_37264">
<rect width="49.8223" height="49.8223" fill="white" transform="translate(14)"/>
</clipPath>
</defs>
</svg>
