<svg width="20" height="20" viewBox="0 0 20 20" fill="none" xmlns="http://www.w3.org/2000/svg">
<path opacity="0.4" d="M10.02 0C4.21 0 0 4.74 0 10C0 11.68 0.49 13.41 1.35 14.99C1.51 15.25 1.53 15.58 1.42 15.89L0.75 18.13C0.6 18.67 1.06 19.07 1.57 18.91L3.59 18.31C4.14 18.13 4.57 18.36 5.081 18.67C6.541 19.53 8.36 19.97 10 19.97C14.96 19.97 20 16.14 20 9.97C20 4.65 15.7 0 10.02 0Z" fill="url(#paint0_linear_903_47)"/>
<path fill-rule="evenodd" clip-rule="evenodd" d="M9.98024 11.2896C9.27024 11.2796 8.70024 10.7096 8.70024 9.99962C8.70024 9.29962 9.28024 8.71962 9.98024 8.72962C10.6902 8.72962 11.2602 9.29962 11.2602 10.0096C11.2602 10.7096 10.6902 11.2896 9.98024 11.2896ZM5.36984 11.2896C4.66984 11.2896 4.08984 10.7096 4.08984 10.0096C4.08984 9.29962 4.65984 8.72962 5.36984 8.72962C6.07984 8.72962 6.64984 9.29962 6.64984 10.0096C6.64984 10.7096 6.07984 11.2796 5.36984 11.2896ZM13.31 10.0096C13.31 10.7096 13.88 11.2896 14.59 11.2896C15.3 11.2896 15.87 10.7096 15.87 10.0096C15.87 9.29962 15.3 8.72962 14.59 8.72962C13.88 8.72962 13.31 9.29962 13.31 10.0096Z" fill="white"/>
<defs>
<linearGradient id="paint0_linear_903_47" x1="-2.83611e-08" y1="-1.22623" x2="23.0865" y2="2.35606" gradientUnits="userSpaceOnUse">
<stop stop-color="#53E88B"/>
<stop offset="1" stop-color="#15BE77"/>
</linearGradient>
</defs>
</svg>
