<svg width="40" height="40" viewBox="0 0 40 40" fill="none" xmlns="http://www.w3.org/2000/svg">
<g clip-path="url(#clip0_601_27236)">
<path d="M20 40C31.0457 40 40 31.0457 40 20C40 8.9543 31.0457 0 20 0C8.9543 0 0 8.9543 0 20C0 31.0457 8.9543 40 20 40Z" fill="#32BA7C"/>
<path d="M14.8906 29.022L25.1745 39.3059C33.6919 37.0346 40.001 29.2744 40.001 19.9999C40.001 19.8106 40.001 19.6214 40.001 19.4321L31.9253 11.9873L14.8906 29.022Z" fill="#0AA06E"/>
<path d="M20.5042 24.4794C21.3875 25.3627 21.3875 26.8769 20.5042 27.7601L18.6746 29.5898C17.7913 30.4731 16.2771 30.4731 15.3938 29.5898L7.38121 21.5141C6.49793 20.6308 6.49793 19.1166 7.38121 18.2333L9.21087 16.4037C10.0941 15.5204 11.6083 15.5204 12.4916 16.4037L20.5042 24.4794Z" fill="white"/>
<path d="M27.5074 10.5365C28.3907 9.6532 29.9049 9.6532 30.7882 10.5365L32.6178 12.3661C33.5011 13.2494 33.5011 14.7636 32.6178 15.6469L18.7377 29.4639C17.8544 30.3472 16.3402 30.3472 15.457 29.4639L13.6273 27.6343C12.744 26.751 12.744 25.2368 13.6273 24.3535L27.5074 10.5365Z" fill="white"/>
</g>
<defs>
<clipPath id="clip0_601_27236">
<rect width="40" height="40" fill="white"/>
</clipPath>
</defs>
</svg>
