<svg width="40" height="40" viewBox="0 0 40 40" fill="none" xmlns="http://www.w3.org/2000/svg">
<path d="M20 40C31.0457 40 40 31.0457 40 20C40 8.9543 31.0457 0 20 0C8.9543 0 0 8.9543 0 20C0 31.0457 8.9543 40 20 40Z" fill="#FFE14D"/>
<path d="M40 20C40 8.97195 31.028 0 20 0V40C31.028 40 40 31.028 40 20Z" fill="#FFBB33"/>
<path d="M20 35.2344C11.6 35.2344 4.76562 28.4 4.76562 20C4.76562 11.6 11.6 4.76562 20 4.76562C28.4 4.76562 35.2344 11.6 35.2344 20C35.2344 28.4 28.4 35.2344 20 35.2344Z" fill="#FFBB33"/>
<path d="M35.2344 20C35.2344 11.6 28.4 4.76562 20 4.76562V35.2344C28.4 35.2344 35.2344 28.4 35.2344 20Z" fill="#E68A2E"/>
<path d="M21.1719 18.9113V14.278C22.5197 14.6087 23.5156 15.4759 23.5156 16.4727C23.5156 17.1204 24.0398 17.6445 24.6875 17.6445C25.3352 17.6445 25.8594 17.1204 25.8594 16.4727C25.8594 14.2084 23.8437 12.3153 21.1719 11.88V10.6133C21.1719 9.96555 20.6477 9.44141 20 9.44141C19.3523 9.44141 18.8281 9.96555 18.8281 10.6133V11.88C16.1563 12.3153 14.1406 14.2084 14.1406 16.4727C14.1406 18.7369 16.1563 20.63 18.8281 21.0653V25.6986C17.4803 25.3679 16.4844 24.5007 16.4844 23.5039C16.4844 22.8562 15.9602 22.332 15.3125 22.332C14.6648 22.332 14.1406 22.8562 14.1406 23.5039C14.1406 25.7681 16.1563 27.6613 18.8281 28.0966V29.3747C18.8281 30.0224 19.3523 30.5466 20 30.5466C20.6477 30.5466 21.1719 30.0224 21.1719 29.3747V28.0966C23.8437 27.6613 25.8594 25.7681 25.8594 23.5039C25.8594 21.2397 23.8437 19.3465 21.1719 18.9113ZM16.4844 16.4727C16.4844 15.4759 17.4803 14.6087 18.8281 14.278V18.6673C17.4803 18.3366 16.4844 17.4694 16.4844 16.4727ZM21.1719 25.6986V21.3092C22.5197 21.6399 23.5156 22.5071 23.5156 23.5039C23.5156 24.5007 22.5197 25.3678 21.1719 25.6986Z" fill="#FFE14D"/>
<path d="M21.1719 29.3747V28.0966C23.8437 27.6613 25.8594 25.7681 25.8594 23.5039C25.8594 21.2397 23.8437 19.3466 21.1719 18.9113V14.278C22.5197 14.6087 23.5156 15.4759 23.5156 16.4727C23.5156 17.1204 24.0398 17.6445 24.6875 17.6445C25.3352 17.6445 25.8594 17.1204 25.8594 16.4727C25.8594 14.2084 23.8437 12.3153 21.1719 11.88V10.6133C21.1719 9.96555 20.6477 9.44141 20 9.44141V30.5466C20.6477 30.5466 21.1719 30.0224 21.1719 29.3747ZM21.1719 21.3091C22.5197 21.6398 23.5156 22.507 23.5156 23.5038C23.5156 24.5006 22.5197 25.3678 21.1719 25.6985V21.3091Z" fill="#FFBB33"/>
</svg>
