<svg width="40" height="40" viewBox="0 0 40 40" fill="none" xmlns="http://www.w3.org/2000/svg">
<path d="M33.334 6.66699H6.66732C4.83398 6.66699 3.35065 8.16699 3.35065 10.0003L3.33398 30.0003C3.33398 31.8337 4.83398 33.3337 6.66732 33.3337H33.334C35.1673 33.3337 36.6673 31.8337 36.6673 30.0003V10.0003C36.6673 8.16699 35.1673 6.66699 33.334 6.66699ZM32.6673 13.7503L20.884 21.117C20.3507 21.4503 19.6507 21.4503 19.1173 21.117L7.33398 13.7503C7.16686 13.6565 7.02052 13.5298 6.9038 13.3777C6.78708 13.2257 6.70242 13.0516 6.65494 12.8659C6.60747 12.6803 6.59816 12.4869 6.62758 12.2975C6.657 12.1081 6.72455 11.9267 6.82612 11.7642C6.9277 11.6016 7.06119 11.4614 7.21853 11.352C7.37586 11.2425 7.55377 11.1662 7.74148 11.1275C7.92918 11.0888 8.12279 11.0886 8.31058 11.1269C8.49836 11.1652 8.67642 11.2412 8.83398 11.3503L20.0007 18.3337L31.1673 11.3503C31.3249 11.2412 31.5029 11.1652 31.6907 11.1269C31.8785 11.0886 32.0721 11.0888 32.2598 11.1275C32.4475 11.1662 32.6254 11.2425 32.7828 11.352C32.9401 11.4614 33.0736 11.6016 33.1752 11.7642C33.2768 11.9267 33.3443 12.1081 33.3737 12.2975C33.4031 12.4869 33.3938 12.6803 33.3464 12.8659C33.2989 13.0516 33.2142 13.2257 33.0975 13.3777C32.9808 13.5298 32.8344 13.6565 32.6673 13.7503Z" fill="url(#paint0_linear_601_35189)"/>
<defs>
<linearGradient id="paint0_linear_601_35189" x1="3.33398" y1="5.02957" x2="41.3134" y2="12.385" gradientUnits="userSpaceOnUse">
<stop stop-color="#53E88B"/>
<stop offset="1" stop-color="#15BE77"/>
</linearGradient>
</defs>
</svg>
