<svg width="51" height="50" viewBox="0 0 51 50" fill="none" xmlns="http://www.w3.org/2000/svg">
<g clip-path="url(#clip0_601_37256)">
<path d="M22.8685 44.788C17.9321 44.788 13.9143 40.8153 13.9143 35.9344V6.28906L3.73649 8.59295C1.22086 9.24711 -0.287506 11.8115 0.377951 14.3218L9.10451 46.5376C9.68394 48.621 11.6201 49.9999 13.6975 49.9999C14.0871 49.9999 14.4833 49.9519 14.8753 49.85L36.1121 44.788H22.8685Z" fill="#B0BEC5"/>
<path d="M50.7838 5.72882V35.9345C50.7838 39.1008 48.1922 41.6633 44.9899 41.6633H22.8681C20.6982 41.6633 18.8021 40.4759 17.8118 38.7259C17.3481 37.9134 17.0742 36.9552 17.0742 35.9345V5.72882C17.0742 2.56212 19.6658 0 22.8681 0H44.9899C48.1922 0 50.7838 2.56212 50.7838 5.72882Z" fill="#ECEFF1"/>
<path d="M31.8221 14.5821C31.8221 16.8833 29.9357 18.7485 27.6083 18.7485C25.2813 18.7485 23.3945 16.8833 23.3945 14.5821C23.3945 12.2812 25.2813 10.416 27.6083 10.416C29.9357 10.416 31.8221 12.2812 31.8221 14.5821Z" fill="#FFC107"/>
<path d="M50.7845 24.8729V35.9346C50.7845 39.1009 48.1929 41.6634 44.9906 41.6634H22.8688C20.6988 41.6634 18.8028 40.476 17.8125 38.7259L38.6913 18.0817C40.1236 16.6655 42.4834 16.6655 43.9162 18.0817L50.7845 24.8729Z" fill="#388E3C"/>
<path d="M44.5894 41.6635H22.8681C20.6982 41.6635 18.8021 40.4761 17.8118 38.726C17.3481 37.9136 17.0742 36.9554 17.0742 35.9347V31.1225L22.8894 25.373C24.3217 23.9564 26.6815 23.9564 28.1143 25.373L44.5894 41.6635Z" fill="#4CAF50"/>
</g>
<defs>
<clipPath id="clip0_601_37256">
<rect width="50.5682" height="50" fill="white" transform="translate(0.216797)"/>
</clipPath>
</defs>
</svg>
