<svg width="52" height="18" viewBox="0 0 52 18" fill="none" xmlns="http://www.w3.org/2000/svg">
<path d="M22.6421 16.9183H18.5218L21.097 1.09236H25.2177L22.6421 16.9183ZM15.0556 1.09236L11.1275 11.9775L10.6626 9.63355L10.6631 9.63439L9.27663 2.5173C9.27663 2.5173 9.10899 1.09236 7.3221 1.09236H0.828153L0.751953 1.36033C0.751953 1.36033 2.73781 1.7735 5.06192 3.16923L8.64163 16.9187H12.9347L19.49 1.09236H15.0556ZM47.4639 16.9183H51.2473L47.9486 1.09193H44.6365C43.107 1.09193 42.7344 2.27134 42.7344 2.27134L36.5893 16.9183H40.8845L41.7434 14.5675H46.9813L47.4639 16.9183ZM42.93 11.3201L45.0949 5.39767L46.3129 11.3201H42.93ZM36.9115 4.89813L37.4995 1.4996C37.4995 1.4996 35.6851 0.80957 33.7936 0.80957C31.7489 0.80957 26.8933 1.70323 26.8933 6.04875C26.8933 10.1373 32.5922 10.1881 32.5922 12.3357C32.5922 14.4833 27.4804 14.0985 25.7934 12.7442L25.1809 16.2977C25.1809 16.2977 27.0207 17.1913 29.8316 17.1913C32.6434 17.1913 36.8852 15.7355 36.8852 11.7731C36.8852 7.65827 31.1351 7.27515 31.1351 5.48614C31.1355 3.69671 35.1483 3.92658 36.9115 4.89813Z" fill="#2566AF"/>
</svg>
