<svg width="34" height="35" viewBox="0 0 34 35" fill="none" xmlns="http://www.w3.org/2000/svg">
<rect opacity="0.1" y="0.5" width="34" height="34" rx="17" fill="#FF1D1D"/>
<path d="M22.8941 12.5736C22.5536 12.2329 22.1493 11.9627 21.7043 11.7783C21.2593 11.5939 20.7824 11.499 20.3007 11.499C19.8191 11.499 19.3421 11.5939 18.8972 11.7783C18.4522 11.9627 18.0479 12.2329 17.7074 12.5736L17.0007 13.2802L16.2941 12.5736C15.6063 11.8858 14.6734 11.4994 13.7007 11.4994C12.728 11.4994 11.7952 11.8858 11.1074 12.5736C10.4196 13.2614 10.0332 14.1942 10.0332 15.1669C10.0332 16.1396 10.4196 17.0724 11.1074 17.7602L11.8141 18.4669L17.0007 23.6536L22.1874 18.4669L22.8941 17.7602C23.2347 17.4197 23.505 17.0154 23.6893 16.5705C23.8737 16.1255 23.9686 15.6486 23.9686 15.1669C23.9686 14.6852 23.8737 14.2083 23.6893 13.7633C23.505 13.3184 23.2347 12.9141 22.8941 12.5736Z" fill="#FF1D1D" stroke="#FF1D1D" stroke-width="2" stroke-linecap="round" stroke-linejoin="round"/>
</svg>
