<svg width="28" height="26" viewBox="0 0 28 26" fill="none" xmlns="http://www.w3.org/2000/svg">
<path d="M12.02 4C6.21 4 2 8.74 2 14C2 15.68 2.49 17.41 3.35 18.99C3.51 19.25 3.53 19.58 3.42 19.89L2.75 22.13C2.6 22.67 3.06 23.07 3.57 22.91L5.59 22.31C6.14 22.13 6.57 22.36 7.081 22.67C8.541 23.53 10.36 23.97 12 23.97C16.96 23.97 22 20.14 22 13.97C22 8.65 17.7 4 12.02 4Z" fill="url(#paint0_linear_601_30686)"/>
<path fill-rule="evenodd" clip-rule="evenodd" d="M11.9802 15.2896C11.2702 15.2796 10.7002 14.7096 10.7002 13.9996C10.7002 13.2996 11.2802 12.7196 11.9802 12.7296C12.6902 12.7296 13.2602 13.2996 13.2602 14.0096C13.2602 14.7096 12.6902 15.2896 11.9802 15.2896ZM7.36984 15.2896C6.66984 15.2896 6.08984 14.7096 6.08984 14.0096C6.08984 13.2996 6.65984 12.7296 7.36984 12.7296C8.07984 12.7296 8.64984 13.2996 8.64984 14.0096C8.64984 14.7096 8.07984 15.2796 7.36984 15.2896ZM15.31 14.0096C15.31 14.7096 15.88 15.2896 16.59 15.2896C17.3 15.2896 17.87 14.7096 17.87 14.0096C17.87 13.2996 17.3 12.7296 16.59 12.7296C15.88 12.7296 15.31 13.2996 15.31 14.0096Z" fill="white"/>
<circle cx="21.5" cy="6.5" r="6" fill="#FF4B4B" stroke="white"/>
<defs>
<linearGradient id="paint0_linear_601_30686" x1="2" y1="2.77377" x2="25.0865" y2="6.35606" gradientUnits="userSpaceOnUse">
<stop stop-color="#53E88B"/>
<stop offset="1" stop-color="#15BE77"/>
</linearGradient>
</defs>
</svg>
