<svg width="40" height="40" viewBox="0 0 40 40" fill="none" xmlns="http://www.w3.org/2000/svg">
<path d="M31.783 8.21687C29.0484 5.46437 25.4391 3.75222 21.5774 3.3756C17.7157 2.99898 13.8436 3.9815 10.6287 6.15375C7.41375 8.32601 5.05743 11.5519 3.96598 15.2752C2.87453 18.9986 3.11633 22.986 4.64971 26.5502C4.80953 26.8815 4.86196 27.2544 4.79971 27.6169L3.33304 34.6669C3.27654 34.9372 3.28807 35.2173 3.36662 35.482C3.44517 35.7467 3.58826 35.9878 3.78304 36.1835C3.94272 36.342 4.13283 36.4666 4.34193 36.5497C4.55103 36.6327 4.77479 36.6726 4.99971 36.6669H5.33304L12.4664 35.2335C12.8289 35.1899 13.1966 35.2416 13.533 35.3835C17.0972 36.9169 21.0847 37.1587 24.808 36.0673C28.5314 34.9758 31.7572 32.6195 33.9295 29.4046C36.1017 26.1896 37.0843 22.3175 36.7076 18.4558C36.331 14.5941 34.6189 10.9848 31.8664 8.2502L31.783 8.21687ZM13.333 21.6669C13.0034 21.6669 12.6812 21.5691 12.4071 21.386C12.133 21.2028 11.9194 20.9425 11.7932 20.638C11.6671 20.3335 11.6341 19.9984 11.6984 19.675C11.7627 19.3517 11.9214 19.0548 12.1545 18.8217C12.3876 18.5886 12.6846 18.4299 13.0079 18.3656C13.3312 18.3012 13.6663 18.3343 13.9708 18.4604C14.2754 18.5865 14.5357 18.8002 14.7188 19.0742C14.902 19.3483 14.9997 19.6706 14.9997 20.0002C14.9997 20.4422 14.8241 20.8661 14.5116 21.1787C14.199 21.4913 13.7751 21.6669 13.333 21.6669ZM19.9997 21.6669C19.6701 21.6669 19.3478 21.5691 19.0738 21.386C18.7997 21.2028 18.5861 20.9425 18.4599 20.638C18.3338 20.3335 18.3008 19.9984 18.3651 19.675C18.4294 19.3517 18.5881 19.0548 18.8212 18.8217C19.0543 18.5886 19.3513 18.4299 19.6746 18.3656C19.9979 18.3012 20.333 18.3343 20.6375 18.4604C20.9421 18.5865 21.2024 18.8002 21.3855 19.0742C21.5686 19.3483 21.6664 19.6706 21.6664 20.0002C21.6664 20.4422 21.4908 20.8661 21.1782 21.1787C20.8657 21.4913 20.4417 21.6669 19.9997 21.6669ZM26.6664 21.6669C26.3367 21.6669 26.0145 21.5691 25.7404 21.386C25.4663 21.2028 25.2527 20.9425 25.1266 20.638C25.0004 20.3335 24.9674 19.9984 25.0317 19.675C25.096 19.3517 25.2548 19.0548 25.4879 18.8217C25.7209 18.5886 26.0179 18.4299 26.3412 18.3656C26.6645 18.3012 26.9996 18.3343 27.3042 18.4604C27.6087 18.5865 27.869 18.8002 28.0522 19.0742C28.2353 19.3483 28.333 19.6706 28.333 20.0002C28.333 20.4422 28.1574 20.8661 27.8449 21.1787C27.5323 21.4913 27.1084 21.6669 26.6664 21.6669Z" fill="url(#paint0_linear_601_35170)"/>
<defs>
<linearGradient id="paint0_linear_601_35170" x1="3.29297" y1="1.24333" x2="41.9552" y2="7.24244" gradientUnits="userSpaceOnUse">
<stop stop-color="#53E88B"/>
<stop offset="1" stop-color="#15BE77"/>
</linearGradient>
</defs>
</svg>
