<svg width="14" height="6" viewBox="0 0 14 6" fill="none" xmlns="http://www.w3.org/2000/svg">
<path fill-rule="evenodd" clip-rule="evenodd" d="M13.5299 1.54033L13.6099 1.46033C13.8489 1.17033 13.8489 0.750329 13.5989 0.460329C13.4599 0.311329 13.2689 0.220329 13.0699 0.200329C12.8599 0.189329 12.6599 0.260329 12.5089 0.400329L7.99994 4.00033C7.41994 4.48133 6.58893 4.48133 5.99993 4.00033L1.49993 0.400329C1.18893 0.170329 0.75893 0.200329 0.49993 0.470329C0.22993 0.740329 0.19993 1.17033 0.42893 1.47033L0.55993 1.60033L5.10993 5.15033C5.66993 5.59033 6.34893 5.83033 7.05994 5.83033C7.76894 5.83033 8.45994 5.59033 9.01894 5.15033L13.5299 1.54033Z" fill="url(#paint0_linear_601_22453)"/>
<defs>
<linearGradient id="paint0_linear_601_22453" x1="0.275391" y1="-0.146551" x2="14.3089" y2="5.07089" gradientUnits="userSpaceOnUse">
<stop stop-color="#53E88B"/>
<stop offset="1" stop-color="#15BE77"/>
</linearGradient>
</defs>
</svg>
