<svg width="83" height="32" viewBox="0 0 83 32" fill="none" xmlns="http://www.w3.org/2000/svg">
<g clip-path="url(#clip0_601_37711)">
<path d="M21.2225 2.78728C21.3241 5.30876 23.3141 14.9308 23.3141 14.9308C24.0453 16.8797 24.675 14.9308 24.675 14.9308C27.0825 7.02601 22.1625 2.44505 22.1625 2.44505C20.9065 1.64143 21.2225 2.78728 21.2225 2.78728ZM49.7891 1.41348C49.7891 1.41348 52.1978 3.24623 49.7891 3.58968C49.7891 3.58968 40.7892 4.73492 34.0924 11.6106C34.0924 11.6106 24.0453 21.2309 20.2791 31.7715C20.2791 31.7715 19.0232 31.7715 19.4435 29.7102C19.8616 27.6483 22.3718 18.597 33.5677 7.48617C33.5677 7.48617 44.3494 -3.28359 49.7891 1.41348Z" fill="#FF4600"/>
<path d="M4.00184 16.665C4.3994 16.7568 4.75642 16.8018 5.28057 16.8018C7.3333 16.8018 8.71641 15.3562 8.71641 13.5204C8.71641 11.8688 7.64812 11.2731 6.26612 11.2731C5.65702 11.2731 5.19617 11.3193 4.903 11.4099L4.00184 16.665ZM2.84916 9.50601C3.70868 9.27562 4.9874 9.13885 6.24447 9.13885C7.56539 9.13885 8.9485 9.4361 9.8702 10.2403C10.6875 10.9284 11.1695 11.9363 11.1695 13.315C11.1695 15.1495 10.3727 16.6425 9.36659 17.5136C8.23557 18.5002 6.62037 18.9822 4.94409 18.9822C4.44049 18.9822 4.00184 18.9123 3.62428 18.8673L2.59708 24.7188H0.208984L2.84916 9.50601Z" fill="black"/>
<path d="M17.6428 15.4708C17.3919 15.4009 17.0782 15.3565 16.6379 15.3565C14.3952 15.3565 12.6346 18.1339 12.6346 20.6809C12.6346 21.8493 13.0327 22.814 14.1021 22.814C15.2536 22.814 16.6379 21.2547 17.1198 18.4087L17.6428 15.4708ZM16.6584 24.719C16.6584 24.0522 16.7417 23.1586 16.8266 22.2164H16.7844C15.7789 24.2601 14.4158 24.9707 13.1165 24.9707C11.2936 24.9707 10.0977 23.4103 10.0977 21.1624C10.0977 17.3534 12.5291 13.2916 17.2869 13.2916C18.3974 13.2916 19.5923 13.5207 20.3891 13.7961L19.3202 19.6244C19.026 21.276 18.8588 23.3878 18.901 24.719H16.6584Z" fill="black"/>
<path d="M34.2602 20.2897C34.2602 21.8252 34.9937 22.9066 36.2513 22.9066C38.0747 22.9066 39.2907 20.1517 39.2907 17.9262C39.2907 16.778 38.8077 15.3555 37.3418 15.3555C35.3924 15.3555 34.2602 18.2016 34.2602 20.2897ZM41.8054 17.9044C41.8054 21.7121 39.3946 24.9697 35.9165 24.9697C33.3374 24.9697 31.7461 23.0197 31.7461 20.3572C31.7461 16.5725 34.1558 13.2912 37.635 13.2912C40.3801 13.2912 41.8054 15.4479 41.8054 17.9044Z" fill="black"/>
<path d="M42.2637 24.7188L43.5846 17.0084C43.8356 15.6772 43.9821 14.507 44.1082 13.5441H46.2892L46.0582 15.5404H46.0993C47.0415 14.0481 48.3419 13.2913 49.7672 13.2913C51.2336 13.2913 52.3658 14.256 52.3658 16.3665C52.3658 16.8704 52.2836 17.6504 52.1781 18.2017L51.0654 24.7188H48.6134L49.7023 18.4084C49.7672 17.9956 49.8294 17.5136 49.8294 17.0771C49.8294 16.1361 49.5151 15.4705 48.5512 15.4705C47.4408 15.4705 46.0149 16.9385 45.5751 19.556L44.6951 24.7188H42.2637Z" fill="black"/>
<path d="M58.8612 15.2878C57.3304 15.2878 56.3254 16.7789 56.0322 18.1339C58.5463 18.1564 60.1615 17.7892 60.1615 16.4361C60.1615 15.7249 59.6374 15.2878 58.8612 15.2878ZM61.1876 24.0759C60.181 24.6491 58.8201 24.9707 57.5824 24.9707C54.7557 24.9707 53.3926 23.0674 53.3926 20.3362C53.3926 16.9631 55.6546 13.2922 59.176 13.2922C61.1876 13.2922 62.4663 14.5535 62.4663 16.4361C62.4663 19.3035 59.7218 20.2207 55.7818 20.1296C55.739 20.5192 55.8229 21.276 56.0539 21.7125C56.4525 22.4705 57.1838 22.8602 58.1493 22.8602C59.3031 22.8602 60.2237 22.5386 60.9594 22.1258L61.1876 24.0759Z" fill="black"/>
<path d="M68.3534 15.2878C66.8242 15.2878 65.8176 16.7789 65.5244 18.1339C68.0385 18.1564 69.6537 17.7892 69.6537 16.4361C69.6537 15.7249 69.1296 15.2878 68.3534 15.2878ZM70.6798 24.0759C69.6748 24.6491 68.3123 24.9707 67.0768 24.9707C64.2479 24.9707 62.8848 23.0674 62.8848 20.3362C62.8848 16.9631 65.1468 13.2922 68.6682 13.2922C70.6798 13.2922 71.9608 14.5535 71.9608 16.4361C71.9608 19.3035 69.214 20.2207 65.274 20.1296C65.2307 20.5192 65.3151 21.276 65.546 21.7125C65.9447 22.4705 66.6776 22.8602 67.6415 22.8602C68.7953 22.8602 69.7159 22.5386 70.4516 22.1258L70.6798 24.0759Z" fill="black"/>
<path d="M72.1055 24.7188L73.2998 17.8345C73.5719 16.2516 73.7184 14.5307 73.8217 13.5441H75.9394C75.8767 14.3009 75.8145 15.0809 75.709 15.8851H75.7712C76.4658 14.3927 77.5741 13.2913 78.9583 13.2913C79.1482 13.2913 79.3358 13.315 79.5041 13.315L79.021 15.9307C78.8955 15.907 78.7278 15.907 78.5596 15.907C76.8189 15.907 75.709 17.8345 75.312 20.2205L74.5358 24.7188H72.1055Z" fill="black"/>
<path d="M81.3585 14.5666H81.5373C81.7205 14.5666 81.8416 14.4547 81.8416 14.2857C81.8416 14.0954 81.7144 14.0122 81.5312 14.0122C81.4468 14.0122 81.3868 14.0189 81.3585 14.0262V14.5666ZM81.1836 13.8924C81.2724 13.8748 81.3996 13.862 81.5179 13.862C81.7033 13.862 81.8266 13.9034 81.9082 13.9836C81.9754 14.0486 82.0142 14.1502 82.0142 14.2669C82.0142 14.459 81.9037 14.589 81.7616 14.6407V14.648C81.8649 14.6869 81.9254 14.7933 81.9598 14.9465C82.0031 15.1507 82.0353 15.2948 82.0637 15.3525H81.8826C81.861 15.3076 81.8305 15.1829 81.796 14.9988C81.7549 14.7945 81.68 14.7191 81.5223 14.7118H81.3585V15.3525H81.1836V13.8924Z" fill="black"/>
<path d="M81.5846 13.2916C80.9183 13.2916 80.377 13.8843 80.377 14.6138C80.377 15.3432 80.9183 15.9365 81.5846 15.9365C82.2509 15.9365 82.7923 15.3432 82.7923 14.6138C82.7923 13.8843 82.2509 13.2916 81.5846 13.2916ZM81.5846 13.4959C82.1476 13.4959 82.6046 13.995 82.6046 14.6138C82.6046 15.232 82.1476 15.7329 81.5846 15.7329C81.0199 15.7329 80.5624 15.232 80.5624 14.6138C80.5624 13.995 81.0199 13.4959 81.5846 13.4959Z" fill="black"/>
</g>
<defs>
<clipPath id="clip0_601_37711">
<rect width="83" height="32" fill="white"/>
</clipPath>
</defs>
</svg>
