<svg width="86" height="23" viewBox="0 0 86 23" fill="none" xmlns="http://www.w3.org/2000/svg">
<g clip-path="url(#clip0_601_37695)">
<path d="M32.1819 5.65625H27.4292C27.2718 5.65615 27.1196 5.71255 27 5.81529C26.8803 5.91803 26.8011 6.06036 26.7766 6.21662L24.8544 18.47C24.8455 18.5269 24.849 18.585 24.8647 18.6404C24.8803 18.6957 24.9077 18.747 24.945 18.7907C24.9822 18.8344 25.0285 18.8695 25.0805 18.8935C25.1325 18.9175 25.1891 18.9299 25.2463 18.9298H27.5153C27.6728 18.9299 27.8251 18.8734 27.9447 18.7705C28.0644 18.6676 28.1435 18.5251 28.1679 18.3687L28.6863 15.0638C28.7107 14.9075 28.7897 14.7651 28.9092 14.6623C29.0287 14.5594 29.1809 14.5028 29.3382 14.5027H30.8428C33.9735 14.5027 35.7804 12.9795 36.2523 9.96105C36.4649 8.64048 36.2613 7.60288 35.6463 6.87621C34.9708 6.07828 33.7727 5.65625 32.1819 5.65625ZM32.7302 10.1315C32.4703 11.8462 31.1673 11.8462 29.9074 11.8462H29.1902L29.6933 8.64397C29.708 8.55028 29.7555 8.46496 29.8273 8.40335C29.899 8.34174 29.9902 8.30789 30.0846 8.30789H30.4133C31.2715 8.30789 32.0812 8.30789 32.4995 8.79978C32.749 9.09325 32.8255 9.52925 32.7302 10.1315ZM46.3888 10.0763H44.1129C44.0185 10.0763 43.9273 10.1102 43.8556 10.1718C43.7838 10.2334 43.7363 10.3187 43.7216 10.4124L43.6208 11.0525L43.4617 10.8205C42.969 10.1015 41.8702 9.86114 40.7736 9.86114C38.2586 9.86114 36.1105 11.7763 35.6921 14.4629C35.4746 15.803 35.7839 17.0845 36.54 17.9782C37.2335 18.7998 38.2259 19.1422 39.4066 19.1422C41.4331 19.1422 42.5569 17.8321 42.5569 17.8321L42.4554 18.468C42.4464 18.5248 42.4497 18.5829 42.4651 18.6384C42.4806 18.6938 42.5078 18.7452 42.545 18.789C42.5821 18.8329 42.6282 18.8681 42.6802 18.8923C42.7321 18.9165 42.7887 18.929 42.846 18.9291H44.8961C45.0535 18.9292 45.2058 18.8727 45.3255 18.7698C45.4451 18.6669 45.5243 18.5244 45.5486 18.368L46.7787 10.5361C46.7877 10.4794 46.7844 10.4214 46.769 10.366C46.7536 10.3107 46.7264 10.2594 46.6893 10.2157C46.6523 10.172 46.6062 10.1369 46.5543 10.1128C46.5024 10.0888 46.446 10.0763 46.3888 10.0763ZM43.2164 14.53C42.9968 15.8373 41.9648 16.7149 40.6485 16.7149C39.9876 16.7149 39.4595 16.5018 39.1203 16.0979C38.784 15.6968 38.6561 15.126 38.7631 14.4901C38.9681 13.194 40.0175 12.2878 41.3136 12.2878C41.9599 12.2878 42.4853 12.5037 42.8314 12.911C43.1781 13.3226 43.3157 13.8969 43.2164 14.53ZM58.5102 10.0763H56.2231C56.1152 10.0765 56.009 10.1031 55.9137 10.1539C55.8184 10.2047 55.7369 10.2781 55.6762 10.3677L52.5218 15.0393L51.1847 10.5501C51.1436 10.4132 51.0598 10.2932 50.9457 10.2078C50.8316 10.1225 50.6931 10.0764 50.5509 10.0763H48.3034C48.2403 10.0762 48.1781 10.0912 48.1219 10.12C48.0658 10.1489 48.0173 10.1909 47.9805 10.2424C47.9437 10.294 47.9197 10.3536 47.9105 10.4163C47.9013 10.4791 47.9071 10.5431 47.9274 10.6032L50.4466 18.0361L48.0782 21.3977C48.0362 21.4573 48.0112 21.5274 48.0061 21.6003C48.001 21.6732 48.0159 21.7461 48.0493 21.8111C48.0827 21.876 48.1332 21.9305 48.1953 21.9685C48.2574 22.0065 48.3287 22.0266 48.4014 22.0265H50.6857C50.7924 22.0267 50.8975 22.0008 50.992 21.9512C51.0865 21.9015 51.1677 21.8295 51.2285 21.7414L58.8354 10.7017C58.8766 10.642 58.9008 10.572 58.9053 10.4995C58.9098 10.4269 58.8945 10.3545 58.861 10.2901C58.8275 10.2256 58.7771 10.1717 58.7152 10.134C58.6534 10.0963 58.5825 10.0764 58.5102 10.0763Z" fill="#253B80"/>
<path d="M66.0824 5.65597H61.329C61.1717 5.65604 61.0197 5.71252 60.9002 5.81524C60.7807 5.91797 60.7016 6.0602 60.6771 6.21634L58.7549 18.4698C58.7459 18.5265 58.7493 18.5846 58.7649 18.6399C58.7804 18.6952 58.8076 18.7465 58.8447 18.7902C58.8819 18.8339 58.928 18.8689 58.9799 18.893C59.0318 18.9171 59.0883 18.9295 59.1454 18.9295H61.5847C61.6948 18.9294 61.8011 18.8897 61.8847 18.8177C61.9683 18.7458 62.0236 18.6462 62.0406 18.5368L62.5861 15.0635C62.6105 14.9072 62.6895 14.7648 62.809 14.662C62.9286 14.5591 63.0807 14.5025 63.238 14.5024H64.7419C67.8733 14.5024 69.6795 12.9792 70.1521 9.96078C70.3654 8.6402 70.1604 7.6026 69.5454 6.87593C68.8706 6.078 67.6732 5.65597 66.0824 5.65597ZM66.6308 10.1313C66.3715 11.8459 65.0685 11.8459 63.8079 11.8459H63.0914L63.5952 8.64369C63.6097 8.55 63.657 8.46461 63.7286 8.40296C63.8003 8.34132 63.8915 8.30749 63.9858 8.30761H64.3145C65.1721 8.30761 65.9824 8.30761 66.4007 8.79951C66.6502 9.09297 66.726 9.52897 66.6308 10.1313ZM80.2887 10.0761H78.0141C77.9197 10.0758 77.8284 10.1096 77.7568 10.1713C77.6851 10.2329 77.6378 10.3184 77.6235 10.4121L77.5227 11.0522L77.3629 10.8202C76.8702 10.1012 75.7722 9.86086 74.6755 9.86086C72.1605 9.86086 70.0131 11.776 69.5947 14.4626C69.3779 15.8028 69.6858 17.0842 70.4419 17.9779C71.1368 18.7996 72.1278 19.1419 73.3086 19.1419C75.335 19.1419 76.4588 17.8318 76.4588 17.8318L76.3573 18.4677C76.3482 18.5246 76.3516 18.5829 76.3671 18.6384C76.3827 18.694 76.41 18.7454 76.4473 18.7893C76.4846 18.8332 76.5309 18.8683 76.583 18.8924C76.6352 18.9165 76.6919 18.9289 76.7493 18.9288H78.7987C78.956 18.9287 79.1081 18.8722 79.2276 18.7693C79.3471 18.6664 79.4262 18.524 79.4505 18.3678L80.6813 10.5358C80.69 10.4789 80.6864 10.4208 80.6707 10.3654C80.6549 10.3101 80.6275 10.2588 80.5902 10.2151C80.5529 10.1714 80.5066 10.1364 80.4546 10.1124C80.4025 10.0884 80.3459 10.076 80.2887 10.0761ZM77.1162 14.5297C76.898 15.837 75.8646 16.7146 74.5484 16.7146C73.8888 16.7146 73.3593 16.5015 73.0201 16.0976C72.6838 15.6966 72.5573 15.1257 72.6629 14.4899C72.8693 13.1937 73.9173 12.2875 75.2134 12.2875C75.8597 12.2875 76.3851 12.5034 76.7312 12.9108C77.0794 13.3223 77.217 13.8967 77.1162 14.5297ZM82.9719 5.99206L81.0211 18.4698C81.0122 18.5265 81.0156 18.5846 81.0311 18.6399C81.0466 18.6952 81.0739 18.7465 81.111 18.7902C81.1481 18.8339 81.1942 18.8689 81.2461 18.893C81.2981 18.9171 81.3545 18.9295 81.4117 18.9295H83.3729C83.6988 18.9295 83.9754 18.692 84.0254 18.3685L85.949 6.11573C85.958 6.05893 85.9546 6.00087 85.9391 5.94552C85.9235 5.89017 85.8963 5.83886 85.8592 5.79511C85.8221 5.75136 85.776 5.7162 85.7241 5.69207C85.6722 5.66793 85.6157 5.65538 85.5585 5.65527H83.3624C83.2681 5.65561 83.1771 5.68968 83.1055 5.7514C83.0339 5.81311 82.9866 5.89842 82.9719 5.99206Z" fill="#179BD7"/>
<path d="M5.11686 21.3112L5.48032 18.9901L4.6707 18.9712H0.804688L3.49137 1.84351C3.49937 1.79118 3.52581 1.74348 3.56586 1.7091C3.60592 1.67473 3.65692 1.65597 3.70959 1.65625H10.2282C12.3923 1.65625 13.8858 2.10902 14.6655 3.00268C15.031 3.42191 15.2638 3.86001 15.3764 4.34213C15.4946 4.848 15.4967 5.45239 15.3813 6.18954L15.373 6.24334V6.71567L15.7385 6.92389C16.0176 7.06604 16.2684 7.25832 16.4786 7.49125C16.7914 7.84969 16.9936 8.30526 17.0791 8.84537C17.1673 9.40085 17.1381 10.0618 16.9936 10.8102C16.8268 11.671 16.5572 12.4207 16.193 13.0342C15.8717 13.5838 15.4397 14.0597 14.9247 14.4316C14.441 14.7768 13.8663 15.0388 13.2165 15.2065C12.5869 15.3714 11.869 15.4545 11.0816 15.4545H10.5743C10.2116 15.4545 9.85921 15.5859 9.58262 15.8214C9.30642 16.0594 9.1232 16.3882 9.06558 16.7493L9.02735 16.9582L8.38522 21.0492L8.35603 21.1994C8.34839 21.2469 8.33518 21.2707 8.31572 21.2867C8.29687 21.3022 8.27336 21.3109 8.24901 21.3112H5.11686Z" fill="#253B80"/>
<path d="M16.0838 6.29785C16.0644 6.42292 16.0421 6.55079 16.0171 6.68215C15.1575 11.1197 12.2164 12.6527 8.46021 12.6527H6.5477C6.08834 12.6527 5.70125 12.9881 5.62967 13.4436L4.65048 19.6874L4.3732 21.4573C4.36215 21.5275 4.36637 21.5992 4.38556 21.6676C4.40475 21.7361 4.43845 21.7995 4.48436 21.8535C4.53026 21.9076 4.58727 21.951 4.65146 21.9808C4.71565 22.0105 4.78549 22.026 4.85619 22.026H8.24825C8.64993 22.026 8.99115 21.7326 9.05439 21.3343L9.08775 21.161L9.72641 17.0861L9.76741 16.8625C9.82996 16.4628 10.1719 16.1694 10.5736 16.1694H11.0809C14.3673 16.1694 16.94 14.8278 17.6919 10.9457C18.0061 9.324 17.8434 7.96989 17.0123 7.01753C16.7488 6.72293 16.4342 6.47905 16.0838 6.29785Z" fill="#179BD7"/>
<path d="M15.1838 5.93646C14.9093 5.85662 14.6301 5.79431 14.3478 5.7499C13.7899 5.66371 13.2262 5.62235 12.6618 5.62623H7.55253C7.35809 5.62607 7.17001 5.69587 7.02228 5.82299C6.87456 5.95011 6.77695 6.12618 6.74708 6.31935L5.66018 13.2409L5.62891 13.4428C5.66277 13.2225 5.77395 13.0216 5.94233 12.8765C6.11072 12.7314 6.32519 12.6517 6.54694 12.6518H8.45944C12.2157 12.6518 15.1567 11.1182 16.0163 6.68129C16.0421 6.54993 16.0636 6.42207 16.0831 6.297C15.8562 6.17739 15.6198 6.07713 15.3763 5.99725C15.3125 5.97595 15.2483 5.95568 15.1838 5.93646Z" fill="#222D65"/>
<path d="M6.74761 6.31986C6.77722 6.12663 6.87478 5.95048 7.02258 5.82343C7.17038 5.69637 7.3586 5.62683 7.55306 5.62743H12.6623C13.2676 5.62743 13.8326 5.66726 14.3483 5.75111C14.6972 5.80624 15.0414 5.88871 15.3775 5.99775C15.6312 6.0823 15.8668 6.18221 16.0843 6.2975C16.34 4.65761 16.0822 3.54106 15.2003 2.53001C14.2281 1.41696 12.4733 0.94043 10.2279 0.94043H3.70928C3.25061 0.94043 2.85935 1.27581 2.78847 1.73208L0.073293 19.0358C0.0606462 19.1162 0.0654579 19.1983 0.0873971 19.2766C0.109336 19.3549 0.147882 19.4275 0.200384 19.4894C0.252885 19.5512 0.318096 19.601 0.391531 19.6351C0.464965 19.6692 0.54488 19.6869 0.62578 19.687H4.65024L5.6607 13.2414L6.74761 6.31986Z" fill="#253B80"/>
</g>
<defs>
<clipPath id="clip0_601_37695">
<rect width="86" height="23" fill="white"/>
</clipPath>
</defs>
</svg>
