<svg width="33" height="33" viewBox="0 0 33 33" fill="none" xmlns="http://www.w3.org/2000/svg">
<circle cx="16.5" cy="16.5" r="16.5" fill="#FFE14D"/>
<mask id="mask0_601_36423" style="mask-type:alpha" maskUnits="userSpaceOnUse" x="0" y="0" width="33" height="33">
<circle cx="16.5" cy="16.5" r="16.5" fill="#FFE14D"/>
</mask>
<g mask="url(#mask0_601_36423)">
<path d="M25 35L16.5 26L21.5 18V7.5L36 24L25 35Z" fill="#F8D52B"/>
</g>
<path d="M16.5001 6.00488C12.096 6.00488 8.50391 9.59695 8.50391 14.001C8.50391 15.7479 9.05745 17.4086 10.1032 18.7987L16.008 26.7539C16.094 26.8768 16.3278 26.9999 16.5001 26.9999C16.6846 26.9999 16.9061 26.8646 16.9922 26.7538C17.0167 26.7169 22.9585 18.7125 23.0077 18.6387C23.02 18.6387 23.02 18.6387 23.02 18.6265C23.9796 17.2733 24.4962 15.674 24.4962 14.001C24.4962 9.59699 20.9042 6.00488 16.5001 6.00488ZM16.5001 18.3067C14.1259 18.3067 12.1945 16.3753 12.1945 14.001C12.1945 11.6268 14.1259 9.69543 16.5001 9.69543C18.8742 9.69543 20.8057 11.6268 20.8057 14.001C20.8057 16.3753 18.8742 18.3067 16.5001 18.3067Z" fill="#FF833D"/>
<path d="M16.5 6V9.69054C18.8741 9.69054 20.8056 11.6219 20.8056 13.9962C20.8056 16.3704 18.8741 18.3018 16.5 18.3018V26.995C16.6846 26.995 16.9061 26.8597 16.9921 26.7489C17.0166 26.712 22.9584 18.7077 23.0077 18.6338C23.02 18.6338 23.02 18.6338 23.02 18.6216C23.9795 17.2684 24.4961 15.6691 24.4961 13.9962C24.4962 9.59207 20.9041 6 16.5 6Z" fill="#E86D28"/>
</svg>
