<svg width="16" height="20" viewBox="0 0 16 20" fill="none" xmlns="http://www.w3.org/2000/svg">
<path d="M7.997 13.1748C3.684 13.1748 0 13.8548 0 16.5748C0 19.2958 3.661 19.9998 7.997 19.9998C12.31 19.9998 15.994 19.3208 15.994 16.5998C15.994 13.8788 12.334 13.1748 7.997 13.1748Z" fill="url(#paint0_linear_601_33908)"/>
<path opacity="0.4" d="M7.99708 10.584C10.9351 10.584 13.2891 8.229 13.2891 5.292C13.2891 2.355 10.9351 0 7.99708 0C5.06008 0 2.70508 2.355 2.70508 5.292C2.70508 8.229 5.06008 10.584 7.99708 10.584Z" fill="url(#paint1_linear_601_33908)"/>
<defs>
<linearGradient id="paint0_linear_601_33908" x1="-2.26803e-08" y1="12.7557" x2="16.7046" y2="18.8209" gradientUnits="userSpaceOnUse">
<stop stop-color="#53E88B"/>
<stop offset="1" stop-color="#15BE77"/>
</linearGradient>
<linearGradient id="paint1_linear_601_33908" x1="2.70508" y1="-0.649894" x2="14.9233" y2="1.24314" gradientUnits="userSpaceOnUse">
<stop stop-color="#53E88B"/>
<stop offset="1" stop-color="#15BE77"/>
</linearGradient>
</defs>
</svg>
