<svg width="26" height="26" viewBox="0 0 26 26" fill="none" xmlns="http://www.w3.org/2000/svg">
<path d="M10.2851 1.79232C11.3645 -0.509415 14.6381 -0.509415 15.7175 1.79232L17.2147 4.98516C17.6392 5.8903 18.4866 6.52454 19.4747 6.67657L23.0728 7.23016C25.4845 7.60123 26.468 10.5431 24.7642 12.29L21.9747 15.1499C21.3101 15.8313 21.0083 16.7876 21.1614 17.7271L21.7923 21.5992C22.1951 24.0715 19.5699 25.9195 17.3784 24.7063L14.4542 23.0876C13.5503 22.5872 12.4524 22.5872 11.5484 23.0876L8.62424 24.7063C6.43275 25.9195 3.80752 24.0715 4.21034 21.5992L4.84125 17.7271C4.99432 16.7876 4.69251 15.8313 4.02792 15.1499L1.23843 12.29C-0.465351 10.5431 0.518082 7.60123 2.92984 7.23016L6.52791 6.67657C7.51601 6.52454 8.36345 5.8903 8.78789 4.98516L10.2851 1.79232Z" fill="#FEAD1D"/>
</svg>
