<svg width="201" height="144" viewBox="0 0 201 144" fill="none" xmlns="http://www.w3.org/2000/svg">
<g filter="url(#filter0_d_601_22458)">
<path fill-rule="evenodd" clip-rule="evenodd" d="M57.659 77.3647C57.5914 77.0953 57.4205 76.8616 57.1799 76.7227L50.5 72.866C49.8333 72.4811 49.8333 71.5189 50.5 71.134L57.1799 67.2773C57.4205 67.1384 57.5914 66.9047 57.659 66.6353C60.0538 57.078 68.7005 50 79.0002 50H134C146.15 50 156 59.8497 156 72C156 84.1503 146.15 94 134 94H79.0002C68.7005 94 60.0538 86.922 57.659 77.3647Z" fill="white"/>
</g>
<path d="M93.616 77H100.462V75.908H95.002C95.114 75.026 95.996 74.004 97.802 72.856C99.79 71.596 100.406 70.672 100.406 69.314C100.406 67.62 99.23 66.444 97.312 66.444C95.702 66.444 94.526 67.284 93.77 68.656L94.722 69.244C95.338 68.124 96.192 67.536 97.256 67.536C98.488 67.536 99.202 68.264 99.202 69.398C99.202 70.504 98.572 71.134 97.018 72.128C94.288 73.878 93.616 75.278 93.616 76.776V77ZM105.775 77.196C108.043 77.196 109.429 75.656 109.429 73.542C109.429 71.484 108.127 70.154 106.195 70.154C105.103 70.154 104.417 70.518 103.941 71.05L104.193 67.746H108.729L108.827 66.64H103.199L102.793 72.086L103.675 72.394C104.235 71.61 104.949 71.19 105.957 71.19C107.287 71.19 108.211 72.016 108.211 73.598C108.211 74.928 107.441 76.118 105.747 76.118C104.557 76.118 103.745 75.502 103.087 74.676L102.261 75.432C103.003 76.482 104.235 77.196 105.775 77.196ZM115.347 77H116.551V71.68C117.335 70.952 118.035 70.49 118.847 70.49C119.813 70.49 120.135 70.952 120.135 71.932V77H121.339V71.68C122.109 70.952 122.795 70.49 123.621 70.49C124.587 70.49 124.909 70.952 124.909 71.932V77H126.113V71.666C126.113 70.336 125.483 69.454 123.971 69.454C122.865 69.454 121.955 70.056 121.241 70.756C120.989 69.986 120.457 69.454 119.211 69.454C118.105 69.454 117.251 70.028 116.551 70.728V69.608H115.347V77ZM128.741 68.026H130.001V66.85H128.741V68.026ZM128.769 77H129.973V69.608H128.769V77ZM132.685 77H133.903V71.68C134.673 70.952 135.415 70.49 136.297 70.49C137.235 70.49 137.655 70.952 137.655 71.932V77H138.859V71.666C138.859 70.266 138.089 69.454 136.675 69.454C135.471 69.454 134.547 70.084 133.903 70.714V69.608H132.685V77Z" fill="#3B3B3B"/>
<g clip-path="url(#clip0_601_22458)">
<path d="M77.0007 78.6663C80.6825 78.6663 83.6673 75.6816 83.6673 71.9997C83.6673 68.3178 80.6825 65.333 77.0007 65.333C73.3188 65.333 70.334 68.3178 70.334 71.9997C70.334 75.6816 73.3188 78.6663 77.0007 78.6663Z" stroke="url(#paint0_linear_601_22458)" stroke-width="2" stroke-linecap="round" stroke-linejoin="round"/>
<path d="M77 69V73L79.6667 74.3333" stroke="url(#paint1_linear_601_22458)" stroke-width="2" stroke-linecap="round" stroke-linejoin="round"/>
</g>
<defs>
<filter id="filter0_d_601_22458" x="0" y="0" width="206" height="144" filterUnits="userSpaceOnUse" color-interpolation-filters="sRGB">
<feFlood flood-opacity="0" result="BackgroundImageFix"/>
<feColorMatrix in="SourceAlpha" type="matrix" values="0 0 0 0 0 0 0 0 0 0 0 0 0 0 0 0 0 0 127 0" result="hardAlpha"/>
<feOffset/>
<feGaussianBlur stdDeviation="25"/>
<feColorMatrix type="matrix" values="0 0 0 0 0.352941 0 0 0 0 0.423529 0 0 0 0 0.917647 0 0 0 0.07 0"/>
<feBlend mode="normal" in2="BackgroundImageFix" result="effect1_dropShadow_601_22458"/>
<feBlend mode="normal" in="SourceGraphic" in2="effect1_dropShadow_601_22458" result="shape"/>
</filter>
<linearGradient id="paint0_linear_601_22458" x1="70.334" y1="64.5143" x2="85.7261" y2="66.8991" gradientUnits="userSpaceOnUse">
<stop stop-color="#53E88B"/>
<stop offset="1" stop-color="#15BE77"/>
</linearGradient>
<linearGradient id="paint1_linear_601_22458" x1="77" y1="68.6725" x2="80.1335" y2="68.9153" gradientUnits="userSpaceOnUse">
<stop stop-color="#53E88B"/>
<stop offset="1" stop-color="#15BE77"/>
</linearGradient>
<clipPath id="clip0_601_22458">
<rect width="16" height="16" fill="white" transform="translate(69 64)"/>
</clipPath>
</defs>
</svg>
