<svg width="25" height="25" viewBox="0 0 25 25" fill="none" xmlns="http://www.w3.org/2000/svg">
<path opacity="0.4" fill-rule="evenodd" clip-rule="evenodd" d="M16.8216 6.44517C16.8444 6.61179 16.8658 6.76875 16.8773 6.97647L4.86188 18.9905H4.58399C2.82402 18.9905 1.54043 17.7467 1.30224 15.815C1.03758 13.8832 1.09051 10.5754 1.30224 8.81562C1.55366 6.9897 2.90341 5.73273 4.58399 5.73273H6.87327L11.2401 2.15896C11.7694 1.71042 12.709 1.28702 13.4368 1.27246C14.7601 1.27246 15.9775 2.19997 16.4142 3.68188C16.5862 4.30243 16.6524 4.92562 16.7053 5.5197L16.8111 6.36783C16.8147 6.39398 16.8182 6.41969 16.8216 6.44517ZM15.6002 14.1641C15.7802 13.9881 16.1785 13.8638 16.3584 13.9087C16.8454 14.0331 16.9394 14.7304 16.9327 15.2782C16.9102 16.8686 16.856 17.9747 16.7713 18.6588L16.7118 19.2224L16.7107 19.233C16.6541 19.8 16.5956 20.3867 16.4286 21.0126C15.9866 22.4919 14.8049 23.4525 13.4631 23.4525C13.4181 23.4525 13.3744 23.4525 13.3294 23.4511C12.5884 23.4511 11.7825 23.0066 11.326 22.6189L9.69967 21.3606C9.08302 20.9015 9.26431 20.1671 9.61101 19.7424C9.86982 19.4263 12.9796 16.5723 14.6144 15.0719C15.1695 14.5624 15.5546 14.209 15.6002 14.1641Z" fill="url(#paint0_linear_1003_97)"/>
<path d="M24.1594 1.08723C23.6923 0.636047 22.9751 0.638693 22.5252 1.08856L1.08794 22.5232C0.636695 22.9744 0.636695 23.6929 1.09191 24.1652C1.3248 24.3809 1.61328 24.5 1.90573 24.5C2.20479 24.5 2.51179 24.3743 2.72484 24.1613L24.1607 2.72659C24.6133 2.27408 24.6133 1.54107 24.1594 1.08723Z" fill="url(#paint1_linear_1003_97)"/>
<defs>
<linearGradient id="paint0_linear_1003_97" x1="1.12305" y1="-0.0894687" x2="19.5871" y2="1.94968" gradientUnits="userSpaceOnUse">
<stop stop-color="#53E88B"/>
<stop offset="1" stop-color="#15BE77"/>
</linearGradient>
<linearGradient id="paint1_linear_1003_97" x1="0.75" y1="-0.708333" x2="28.1671" y2="3.53955" gradientUnits="userSpaceOnUse">
<stop stop-color="#53E88B"/>
<stop offset="1" stop-color="#15BE77"/>
</linearGradient>
</defs>
</svg>
