<svg width="40" height="40" viewBox="0 0 40 40" fill="none" xmlns="http://www.w3.org/2000/svg">
<g clip-path="url(#clip0_601_27265)">
<path d="M20 40C31.0457 40 40 31.0457 40 20C40 8.9543 31.0457 0 20 0C8.9543 0 0 8.9543 0 20C0 31.0457 8.9543 40 20 40Z" fill="#E21B1B"/>
<path d="M39.8658 22.2895L28.7433 11.167L11.7383 28.7976L22.7483 39.8076C31.7464 38.5701 38.8327 31.3507 39.8658 22.2895Z" fill="#C40606"/>
<path d="M27.684 29.0255C27.284 29.0255 26.8846 28.873 26.579 28.568L11.4365 13.4249C10.8259 12.8143 10.8259 11.8255 11.4365 11.2155C12.0471 10.6055 13.0359 10.6049 13.6459 11.2155L28.789 26.3587C29.3996 26.9693 29.3996 27.958 28.789 28.568C28.4834 28.873 28.084 29.0255 27.684 29.0255Z" fill="white"/>
<path d="M12.5415 29.0258C12.1415 29.0258 11.7421 28.8733 11.4365 28.5683C10.8259 27.9577 10.8259 26.9689 11.4365 26.3589L26.5796 11.2158C27.1902 10.6052 28.179 10.6052 28.789 11.2158C29.399 11.8264 29.3996 12.8152 28.789 13.4252L13.6465 28.5683C13.3415 28.8733 12.9415 29.0258 12.5415 29.0258Z" fill="white"/>
</g>
<defs>
<clipPath id="clip0_601_27265">
<rect width="40" height="40" fill="white"/>
</clipPath>
</defs>
</svg>
